<?xml version="1.0" encoding="UTF-8" standalone="no"?>
<!-- Generator: Adobe Illustrator 24.0.1, SVG Export Plug-In . SVG Version: 6.00 Build 0)  -->

<svg
   version="1.1"
   id="Layer_1"
   x="0px"
   y="0px"
   width="1000px"
   height="1000px"
   viewBox="0 0 1000 1000"
   style="enable-background:new 0 0 1000 1000;"
   xml:space="preserve"
   sodipodi:docname="initEdit.svg"
   inkscape:version="1.2.1 (9c6d41e410, 2022-07-14)"
   xmlns:inkscape="http://www.inkscape.org/namespaces/inkscape"
   xmlns:sodipodi="http://sodipodi.sourceforge.net/DTD/sodipodi-0.dtd"
   xmlns="http://www.w3.org/2000/svg"
   xmlns:svg="http://www.w3.org/2000/svg"><defs
   id="defs993" /><sodipodi:namedview
   id="namedview991"
   pagecolor="#ffffff"
   bordercolor="#000000"
   borderopacity="0.25"
   inkscape:showpageshadow="2"
   inkscape:pageopacity="0.0"
   inkscape:pagecheckerboard="0"
   inkscape:deskcolor="#d1d1d1"
   showgrid="false"
   inkscape:zoom="0.57558492"
   inkscape:cx="406.54297"
   inkscape:cy="596.78422"
   inkscape:window-width="1368"
   inkscape:window-height="850"
   inkscape:window-x="-6"
   inkscape:window-y="-6"
   inkscape:window-maximized="1"
   inkscape:current-layer="illustration" />
<g
   id="illustration"
   style="fill:#000000">
	
	
	
	
	
	
	
	
	
	
	
	
	
	
	
	
	
	
	
	
	
	
	
	
	
	
	
	
	
	
	
<path
   style="fill:#800000;stroke-width:1.45635"
   d="m 428.31064,886.7568 c -74.9343,-4.6389 -110.9588,-10.84894 -151.741,-26.15767 -11.3141,-4.24704 -25.5445,-8.98445 -31.62333,-10.52758 l -11.05233,-2.8057 0.86254,-6.87294 c 0.47437,-3.78012 1.69858,-13.8651 2.72045,-22.41109 4.39424,-36.74966 12.54027,-74.89153 22.18167,-103.86088 4.3814,-13.1646 4.6125,-14.64936 2.5369,-16.2985 -2.1006,-1.66893 -2.0181,-3.3812 1.0291,-21.3505 1.822,-10.74483 4.6617,-24.68712 6.3104,-30.98286 1.6486,-6.29574 3.8642,-16.98419 4.9234,-23.75209 2.1825,-13.94471 7.1325,-29.48742 14.8619,-46.66508 2.9079,-6.46241 8.0692,-21.03451 11.4695,-32.38244 3.4004,-11.34792 7.2002,-22.6125 8.444,-25.03239 7.9785,-15.52287 34.3256,-45.82864 70.8309,-81.47344 l 25.2423,-24.64727 0.8737,-35.59312 c 0.8557,-34.85506 0,-61.58098 -1.9628,-61.62608 -0.5437,-0.0125 -6.7155,5.4739 -13.715,12.19195 -12.5884,12.08213 -12.7367,12.17128 -13.6716,8.21887 -0.5198,-2.19766 -0.8651,-8.33426 -0.7674,-13.6369 0.1389,-7.54086 0.9693,-11.01113 3.8117,-15.92989 3.485,-6.03055 14.5066,-14.81164 18.4766,-14.72062 1.0444,0.0239 1.9276,-1.30488 1.9627,-2.95292 0.063,-2.97742 0.029,-2.97924 -5.3565,-0.28649 -8.9688,4.48408 -20.5198,7.1428 -30.08,6.92361 -6.3908,-0.14652 -9.0194,-0.76278 -8.9908,-2.10784 0.022,-1.04544 3.6723,-5.53531 8.1112,-9.9775 8.613,-8.61937 20.0001,-14.99101 29.1118,-16.28941 5.4717,-0.77969 5.5816,-0.91508 5.1952,-6.39899 -0.2499,-3.54584 0.6838,-7.69659 2.5433,-11.30721 1.616,-3.13764 3.4438,-7.89875 4.0618,-10.58025 0.618,-2.68149 1.5431,-4.66352 2.0558,-4.40451 7.3317,3.70381 34.7599,15.07612 43.4594,18.01919 19.1705,6.4854 41.7135,10.35165 63.1901,10.83747 29.5424,0.6684 54.2579,-3.83071 83.6586,-15.22843 6.8394,-2.6514 12.867,-4.81081 13.3948,-4.79871 0.5277,0.0121 0.4732,2.41828 -0.121,5.34709 -1.2368,6.09451 -2.5726,6.49109 14.4268,-4.28287 5.5322,-3.50625 10.2656,-6.15051 10.5186,-5.87613 1.0634,1.15331 -10.7809,31.69111 -14.8347,38.24761 -2.4271,3.92565 -4.2302,7.27224 -4.0069,7.43683 1.2097,0.89153 22.525,7.26526 24.4439,7.30926 3.3865,0.0776 2.8575,1.22427 -4.517,9.79068 -10.8156,12.5637 -18.4374,14.72223 -30.5868,8.66238 -7.609,-3.7952 -8.2425,-3.81665 -10.1302,-0.34325 -2.8209,5.19037 -8.0488,37.62812 -11.5792,71.8463 -1.9322,18.7268 -3.9207,35.37728 -4.419,37.00105 -0.7379,2.40478 0.8714,4.20833 8.6772,9.72442 14.051,9.9294 38.8963,37.55204 49.1655,54.66136 4.7185,7.86146 16.8844,32.17927 27.0354,54.03957 10.151,21.8603 21.1931,45.15072 24.538,51.75649 12.6641,25.0101 19.9302,48.35344 22.0897,70.96529 0.6653,6.96644 2.7043,19.71186 4.5311,28.32316 1.8268,8.61129 5.2252,29.05548 7.5519,45.43152 2.3268,16.37604 4.5927,31.61923 5.0354,33.87375 0.7772,3.95853 0.603,4.0945 -5.0791,3.96423 -3.7583,-0.0862 -5.8955,0.53491 -5.9158,1.71922 -0.017,1.01977 2.8377,14.46634 6.3449,29.88127 l 6.3769,28.02713 -4.6637,3.52479 c -6.6792,5.04815 -30.9281,16.52406 -47.7357,22.59114 -41.6534,15.03576 -102.7802,27.06524 -158.698,31.23107 -17.6406,1.31421 -69.6801,1.32267 -90.8071,0.0148 z"
   id="path389" /><path
   sodipodi:type="star"
   style="fill:#ffffff"
   id="path512"
   inkscape:flatsided="false"
   sodipodi:sides="5"
   sodipodi:cx="642.82434"
   sodipodi:cy="793.97491"
   sodipodi:r1="26.576546"
   sodipodi:r2="13.288272"
   sodipodi:arg1="0.19739556"
   sodipodi:arg2="0.82571409"
   inkscape:rounded="0"
   inkscape:randomized="0"
   d="m 668.88479,799.187 -17.05057,4.55522 -5.91375,16.62828 -9.60119,-14.80842 -17.64187,-0.48589 11.11671,-13.70732 -4.98953,-16.92857 16.47169,6.33682 14.55817,-9.97654 -0.93664,17.6237 z"
   inkscape:transform-center-x="-0.95675659"
   inkscape:transform-center-y="1.6106242" /><path
   sodipodi:type="star"
   style="fill:#ffffff"
   id="path514"
   inkscape:flatsided="false"
   sodipodi:sides="5"
   sodipodi:cx="375.27042"
   sodipodi:cy="507.31003"
   sodipodi:r1="14.326663"
   sodipodi:r2="7.163331"
   sodipodi:arg1="0.24497866"
   sodipodi:arg2="0.87329719"
   inkscape:rounded="0"
   inkscape:randomized="0"
   d="m 389.16932,510.78475 -9.29788,2.01562 -3.61069,8.80205 -4.79016,-8.21995 -9.48702,-0.71398 6.33739,-7.09582 -2.2526,-9.24333 8.70689,3.83449 8.09482,-4.9987 -0.95623,9.46567 z"
   inkscape:transform-center-x="-0.3060309"
   inkscape:transform-center-y="1.0737494" /><path
   sodipodi:type="star"
   style="fill:#ffffff"
   id="path516"
   inkscape:flatsided="false"
   sodipodi:sides="5"
   sodipodi:cx="481.24957"
   sodipodi:cy="641.08698"
   sodipodi:r1="24.323084"
   sodipodi:r2="12.161541"
   sodipodi:arg1="0"
   sodipodi:arg2="0.62831853"
   inkscape:rounded="0"
   inkscape:randomized="0"
   d="m 505.57266,641.08698 -14.48419,7.14837 -2.32265,15.98425 -11.27437,-11.56631 -15.91967,2.73044 7.51625,-14.29675 -7.51625,-14.29675 15.91967,2.73043 11.27437,-11.56631 2.32265,15.98425 z"
   inkscape:transform-center-x="-2.3226478" /><path
   sodipodi:type="star"
   style="fill:#ffffff"
   id="path518"
   inkscape:flatsided="false"
   sodipodi:sides="5"
   sodipodi:cx="283.19019"
   sodipodi:cy="799.18701"
   sodipodi:r1="21.769096"
   sodipodi:r2="10.884548"
   sodipodi:arg1="0.49934672"
   sodipodi:arg2="1.1276653"
   inkscape:rounded="0"
   inkscape:randomized="0"
   d="m 302.30118,809.61119 -14.44402,-0.59093 -8.67534,11.56363 -3.90144,-13.91969 -13.67849,-4.67737 12.0328,-8.01191 0.22156,-14.45441 11.33812,8.96806 13.81542,-4.25594 -5.02546,13.55447 z"
   inkscape:transform-center-x="1.2386517"
   inkscape:transform-center-y="0.86519284" /><path
   sodipodi:type="star"
   style="fill:#ffffff"
   id="path520"
   inkscape:flatsided="false"
   sodipodi:sides="5"
   sodipodi:cx="642.82434"
   sodipodi:cy="575.0672"
   sodipodi:r1="22.58572"
   sodipodi:r2="11.29286"
   sodipodi:arg1="0.39479112"
   sodipodi:arg2="1.0231097"
   inkscape:rounded="0"
   inkscape:randomized="0"
   d="m 663.6727,583.75402 -14.96801,0.95425 -7.6995,12.87127 -5.53292,-13.94054 -14.62059,-3.34522 11.54848,-9.56999 -1.33651,-14.93873 12.67027,8.02597 13.79457,-5.88742 -3.71782,14.5303 z"
   inkscape:transform-center-x="0.56215006"
   inkscape:transform-center-y="1.6151007" /><path
   sodipodi:type="star"
   style="fill:#ffffff"
   id="path522"
   inkscape:flatsided="false"
   sodipodi:sides="5"
   sodipodi:cx="561.16827"
   sodipodi:cy="465.61331"
   sodipodi:r1="14.007069"
   sodipodi:r2="7.0035348"
   sodipodi:arg1="0.51914611"
   sodipodi:arg2="1.1474646"
   inkscape:rounded="0"
   inkscape:randomized="0"
   d="m 573.32982,472.56276 -9.28449,-0.56415 -5.72825,7.32851 -2.33253,-9.0044 -8.73996,-3.18326 7.84291,-5.00087 0.32667,-9.29588 7.1797,5.9137 8.94185,-2.56191 -3.40561,8.65574 z"
   inkscape:transform-center-x="0.88106892"
   inkscape:transform-center-y="0.47160621" /><path
   sodipodi:type="star"
   style="fill:#ffffff"
   id="path524"
   inkscape:flatsided="false"
   sodipodi:sides="5"
   sodipodi:cx="323.14954"
   sodipodi:cy="630.66278"
   sodipodi:r1="12.648194"
   sodipodi:r2="6.3240976"
   sodipodi:arg1="0.27829966"
   sodipodi:arg2="0.90661819"
   inkscape:rounded="0"
   inkscape:randomized="0"
   d="m 335.31108,634.13751 -8.26329,1.50501 -3.44479,7.66032 -3.98486,-7.39378 -8.34989,-0.90902 5.80051,-6.07462 -1.71572,-8.22213 7.56977,3.63946 7.28951,-4.17253 -1.12214,8.32393 z"
   inkscape:transform-center-x="-0.14012749"
   inkscape:transform-center-y="1.0737494" /><path
   sodipodi:type="star"
   style="fill:#ffffff"
   id="path528"
   inkscape:flatsided="false"
   sodipodi:sides="5"
   sodipodi:cx="390.90671"
   sodipodi:cy="734.9046"
   sodipodi:r1="17.111042"
   sodipodi:r2="8.555522"
   sodipodi:arg1="0.41822433"
   sodipodi:arg2="1.0465429"
   inkscape:rounded="0"
   inkscape:randomized="0"
   d="m 406.54298,741.85405 -11.35366,0.45705 -6.06006,9.61198 -3.94315,-10.65674 -11.01419,-2.7932 8.91665,-7.04326 -0.74708,-11.33827 9.45394,6.30375 10.55247,-4.21423 -3.0738,10.9392 z"
   inkscape:transform-center-x="0.5492621"
   inkscape:transform-center-y="1.1027403" /><path
   sodipodi:type="star"
   style="fill:#ffffff"
   id="path530"
   inkscape:flatsided="false"
   sodipodi:sides="5"
   sodipodi:cx="578.54193"
   sodipodi:cy="687.99579"
   sodipodi:r1="15.539448"
   sodipodi:r2="7.7697248"
   sodipodi:arg1="0.46364761"
   sodipodi:arg2="1.0919661"
   inkscape:rounded="0"
   inkscape:randomized="0"
   d="m 592.44084,694.94524 -10.31908,-0.0535 -5.89415,8.47024 -3.13784,-9.83057 -9.87707,-2.98823 8.37978,-6.02207 -0.21021,-10.31707 8.31682,6.10873 9.74716,-3.38808 -3.2397,9.79748 z"
   inkscape:transform-center-x="0.71516551"
   inkscape:transform-center-y="0.78717326" /></g>
<g
   id="skeleton_1_"
   sodipodi:insensitive="true"
   style="opacity:0.25">
	<circle
   id="rightShoulder"
   cx="392.79999"
   cy="294.29999"
   r="8.1999998" />
	<circle
   id="rightElbow"
   cx="289.29999"
   cy="294.39999"
   r="8.1999998" />
	
		<circle
   id="rightWrist"
   transform="matrix(0.9951,-0.09853767,0.09853767,0.9951,-29.0274,13.8698)"
   cx="125.9"
   cy="300.79999"
   r="8.1999998" />
	<circle
   id="rightHip"
   cx="443.10001"
   cy="510.10001"
   r="8.1999998" />
	<circle
   id="rightKnee"
   cx="449.5"
   cy="670.29999"
   r="8.1999998" />
	<circle
   id="rightAnkle"
   cx="449.5"
   cy="878.29999"
   r="8.1999998" />
	<circle
   id="leftShoulder"
   cx="605.70001"
   cy="294.29999"
   r="8.1999998" />
	<circle
   id="leftElbow"
   cx="710.09998"
   cy="294"
   r="8.1999998" />
	<circle
   id="leftWrist"
   cx="873.5"
   cy="300.29999"
   r="8.1999998" />
	<circle
   id="leftHip"
   cx="559.5"
   cy="509.29999"
   r="8.1999998" />
	<circle
   id="leftKnee"
   cx="559.5"
   cy="670.29999"
   r="8.1999998" />
	<circle
   id="leftAnkle"
   cx="559.5"
   cy="878.29999"
   r="8.1999998" />
	<polygon
   style="fill:none;stroke:#000000;stroke-miterlimit:10"
   points="443,510.4 559.4,509.6 605.6,294.6 392.7,294.6 "
   id="polygon886" />
	<polyline
   style="fill:none;stroke:#000000;stroke-miterlimit:10"
   points="391.7,294.6 289,294.6 125.7,300.9  "
   id="polyline888" />
	<polyline
   style="fill:none;stroke:#000000;stroke-miterlimit:10"
   points="607.1,294.2 710.3,294.2 873.6,300.6  "
   id="polyline890" />
	<polyline
   style="fill:none;stroke:#000000;stroke-miterlimit:10"
   points="443,510.4 449.4,670.6 449.4,878.6  "
   id="polyline892" />
	<polyline
   style="fill:none;stroke:#000000;stroke-miterlimit:10"
   points="559.4,509.6 559.4,670.6 559.4,878.6  "
   id="polyline894" />
	<circle
   id="rightEye0"
   cx="468.60001"
   cy="160.2"
   r="0.80000001" />
	<circle
   id="rightBrow1"
   cx="466.39999"
   cy="148.3"
   r="0.80000001" />
	<circle
   id="rightBrow4"
   cx="489.70001"
   cy="151.3"
   r="0.80000001" />
	<circle
   id="nose1"
   cx="497.60001"
   cy="161.2"
   r="0.80000001" />
	<circle
   id="rightBrow3"
   cx="479.89999"
   cy="147.3"
   r="0.80000001" />
	<circle
   id="rightEye1"
   cx="473.79999"
   cy="156.5"
   r="0.80000001" />
	<circle
   id="rightBrow0"
   cx="462.39999"
   cy="152"
   r="0.80000001" />
	<circle
   id="rightBrow2"
   cx="472.60001"
   cy="147.3"
   r="0.80000001" />
	<circle
   id="rightEye5"
   cx="473.79999"
   cy="162.5"
   r="0.80000001" />
	<circle
   id="rightEye2"
   cx="480.10001"
   cy="156.5"
   r="0.80000001" />
	<circle
   id="rightEye3"
   cx="485.29999"
   cy="160.7"
   r="0.80000001" />
	<circle
   id="nose0"
   cx="497.60001"
   cy="155.39999"
   r="0.80000001" />
	<circle
   id="nose3"
   cx="497.60001"
   cy="173.8"
   r="0.80000001" />
	<circle
   id="rightNose0"
   cx="486.89999"
   cy="178.3"
   r="0.80000001" />
	<circle
   id="rightMouthCorner"
   cx="480.89999"
   cy="200.39999"
   r="0.80000001" />
	<circle
   id="rightNose1"
   cx="492.10001"
   cy="178.3"
   r="0.80000001" />
	<circle
   id="rightUpperLipTop0"
   cx="487.79999"
   cy="197"
   r="0.80000001" />
	<circle
   id="nose2"
   cx="497.60001"
   cy="166.7"
   r="0.80000001" />
	<circle
   id="nose4"
   cx="497.60001"
   cy="179.10001"
   r="0.80000001" />
	<circle
   id="upperLipTopMid"
   cx="498.39999"
   cy="196.8"
   r="0.80000001" />
	<circle
   id="rightUpperLipTop1"
   cx="494.29999"
   cy="195.89999"
   r="0.80000001" />
	<path
   id="rightMiddleLip"
   d="m 484.5,199.9 c 0.4,0 0.8,0.4 0.8,0.8 0,0.4 -0.4,0.8 -0.8,0.8 -0.4,0 -0.8,-0.4 -0.8,-0.8 0,-0.4 0.4,-0.8 0.8,-0.8 z" />
	<circle
   id="lowerLipBottomMid"
   cx="498.39999"
   cy="210"
   r="0.80000001" />
	<circle
   id="upperLipBottomMid"
   cx="498.39999"
   cy="200.39999"
   r="0.80000001" />
	<circle
   id="lowerLipTopMid"
   cx="498.39999"
   cy="203.5"
   r="0.80000001" />
	<circle
   id="rightUpperLipBottom1"
   cx="494.5"
   cy="199.89999"
   r="0.80000001" />
	<circle
   id="rightLowerLipTop0"
   cx="494.5"
   cy="202.8"
   r="0.80000001" />
	<circle
   id="rightLowerLipBottom1"
   cx="494.29999"
   cy="209.5"
   r="0.80000001" />
	<circle
   id="rightLowerLipBottom0"
   cx="487.29999"
   cy="206.7"
   r="0.80000001" />
	<circle
   id="rightEye4"
   cx="480.10001"
   cy="161.7"
   r="0.80000001" />
	<circle
   id="jawMid"
   cx="498.39999"
   cy="235.8"
   r="0.80000001" />
	<circle
   id="rightJaw7"
   cx="483.39999"
   cy="232.60001"
   r="0.80000001" />
	<circle
   id="rightJaw6"
   cx="473.39999"
   cy="225.89999"
   r="0.80000001" />
	<circle
   id="rightJaw5"
   cx="461.79999"
   cy="213.39999"
   r="0.80000001" />
	<circle
   id="rightJaw4"
   cx="455"
   cy="193.39999"
   r="0.80000001" />
	<circle
   id="rightJaw3"
   cx="454.20001"
   cy="171.7"
   r="0.80000001" />
	<circle
   id="rightJaw2"
   cx="454.20001"
   cy="162.2"
   r="0.80000001" />
	<circle
   id="rightJaw1"
   cx="455"
   cy="150.5"
   r="0.80000001" />
	<circle
   id="rightJaw0"
   cx="457.5"
   cy="141.2"
   r="0.80000001" />
	<circle
   id="topMid"
   cx="498.60001"
   cy="115.1"
   r="0.80000001" />
	<circle
   id="leftTop0"
   cx="518.29999"
   cy="117.6"
   r="0.80000001" />
	<circle
   id="leftTop1"
   cx="530.90002"
   cy="127.1"
   r="0.80000001" />
	<circle
   id="leftEye0"
   cx="528.20001"
   cy="160.2"
   r="0.80000001" />
	<circle
   id="leftBrow1"
   cx="530.09998"
   cy="148.7"
   r="0.80000001" />
	<circle
   id="leftBrow4"
   cx="506.5"
   cy="150.8"
   r="0.80000001" />
	<circle
   id="leftBrow3"
   cx="516.5"
   cy="147.60001"
   r="0.80000001" />
	<circle
   id="leftEye1"
   cx="523"
   cy="156.5"
   r="0.80000001" />
	<circle
   id="leftBrow0"
   cx="534.09998"
   cy="151.60001"
   r="0.80000001" />
	<circle
   id="leftBrow2"
   cx="523.79999"
   cy="147.2"
   r="0.80000001" />
	<circle
   id="leftEye5"
   cx="523"
   cy="162.5"
   r="0.80000001" />
	<circle
   id="leftEye2"
   cx="516.70001"
   cy="156.5"
   r="0.80000001" />
	<circle
   id="leftEye3"
   cx="511.5"
   cy="160.7"
   r="0.80000001" />
	<circle
   id="leftNose0"
   cx="508"
   cy="178.3"
   r="0.80000001" />
	<circle
   id="leftMouthCorner"
   cx="515.90002"
   cy="200.39999"
   r="0.80000001" />
	<circle
   id="leftNose1"
   cx="503.20001"
   cy="178.3"
   r="0.80000001" />
	<circle
   id="leftUpperLipTop0"
   cx="509"
   cy="197"
   r="0.80000001" />
	<circle
   id="leftUpperLipTop1"
   cx="502.60001"
   cy="195.89999"
   r="0.80000001" />
	<path
   id="leftMiddleLip"
   d="m 512.3,199.9 c 0.4,0 0.8,0.4 0.8,0.8 0,0.4 -0.4,0.8 -0.8,0.8 -0.4,0 -0.8,-0.4 -0.8,-0.8 0,-0.4 0.4,-0.8 0.8,-0.8 z" />
	<circle
   id="leftUpperLipBottom1"
   cx="502.39999"
   cy="199.89999"
   r="0.80000001" />
	<circle
   id="leftLowerLipTop0"
   cx="502.39999"
   cy="202.8"
   r="0.80000001" />
	<circle
   id="leftLowerLipBottom1"
   cx="502.60001"
   cy="209.5"
   r="0.80000001" />
	<circle
   id="leftLowerLipBottom0"
   cx="509.5"
   cy="206.7"
   r="0.80000001" />
	<circle
   id="leftEye4"
   cx="516.70001"
   cy="161.7"
   r="0.80000001" />
	<circle
   id="leftJaw7"
   cx="513.20001"
   cy="233"
   r="0.80000001" />
	<circle
   id="leftJaw6"
   cx="523.20001"
   cy="226.3"
   r="0.80000001" />
	<circle
   id="leftJaw5"
   cx="534.79999"
   cy="213.7"
   r="0.80000001" />
	<circle
   id="leftJaw4"
   cx="541.59998"
   cy="193.7"
   r="0.80000001" />
	<circle
   id="leftJaw3"
   cx="542.40002"
   cy="172.10001"
   r="0.80000001" />
	<circle
   id="leftJaw2"
   cx="542.40002"
   cy="162.5"
   r="0.80000001" />
	<circle
   id="leftJaw1"
   cx="541.59998"
   cy="150.8"
   r="0.80000001" />
	<circle
   id="leftJaw0"
   cx="539.09998"
   cy="141.60001"
   r="0.80000001" />
	<polyline
   style="fill:none;stroke:#000000;stroke-miterlimit:10"
   points="498.4,115.1 478.6,117.6 466.1,127.1 457.5,141.2    455,150.5 454.2,162.2 454.2,171.7 455,193.4 461.8,213.4 473.4,225.9 483.4,232.6 498.4,235.8 513.2,233 523.2,226.3 534.8,213.7    541.6,193.7 542.4,172.1 542.4,162.5 541.6,150.8 539.1,141.6 530.9,127.1 518.3,117.6 498.4,115.1  "
   id="polyline967" />
	<polyline
   style="fill:none;stroke:#000000;stroke-miterlimit:10"
   points="462.4,152 466.4,148.3 472.6,147.3 479.9,147.3    489.7,151.3  "
   id="polyline969" />
	<polygon
   style="fill:none;stroke:#000000;stroke-miterlimit:10"
   points="473.8,156.5 480.1,156.5 485.3,160.7 480.1,161.7 473.8,162.5 468.6,160.2 "
   id="polygon971" />
	<polyline
   style="fill:none;stroke:#000000;stroke-miterlimit:10"
   points="486.9,178.3 492.1,178.3 497.6,179.1 497.6,173.8    497.6,166.7 497.6,161.2 497.6,155.4  "
   id="polyline973" />
	<polyline
   style="fill:none;stroke:#000000;stroke-miterlimit:10"
   points="533.9,151.6 529.9,148.7 523.6,147.2 516.3,147.6    506.3,150.8  "
   id="polyline975" />
	<polygon
   style="fill:none;stroke:#000000;stroke-miterlimit:10"
   points="522.7,156.5 516.4,156.5 511.3,160.7 516.4,161.7 522.7,162.5 528,160.2 "
   id="polygon977" />
	<polyline
   style="fill:none;stroke:#000000;stroke-miterlimit:10"
   points="508,178.3 503,178.3 497.6,179.1  "
   id="polyline979" />
	<polygon
   style="fill:none;stroke:#000000;stroke-miterlimit:10"
   points="487.8,197 494.3,195.9 498.4,196.8 502.6,195.9 509,197 515.9,200.4 509.5,206.7 502.4,209.5 498.4,210 494.3,209.5 487.3,206.7 480.9,200.4 "
   id="polygon981" />
	<polyline
   style="fill:none;stroke:#000000;stroke-miterlimit:10"
   points="480.9,200.4 484.5,200.7 494.5,199.9 498.4,200.4    502.4,199.9 512.3,200.7 515.9,200.4  "
   id="polyline983" />
	<polyline
   style="fill:none;stroke:#000000;stroke-miterlimit:10"
   points="480.9,200.4 484.5,200.7 494.5,202.8 498.4,203.6    502.4,202.8 512.3,200.7 515.9,200.4  "
   id="polyline985" />
	<circle
   id="rightTop0"
   cx="478.70001"
   cy="117.6"
   r="0.80000001" />
	<circle
   id="rightTop1"
   cx="466.10001"
   cy="127.1"
   r="0.80000001" />
</g>
</svg>
